<?xml version="1.0" encoding="UTF-8" standalone="no"?>
<svg
   width="600"
   height="600"
   version="1.1"
   id="svg1"
   sodipodi:docname="github-mark.svg"
   inkscape:version="1.4 (e7c3feb100, 2024-10-09)"
   xmlns:inkscape="http://www.inkscape.org/namespaces/inkscape"
   xmlns:sodipodi="http://sodipodi.sourceforge.net/DTD/sodipodi-0.dtd"
   xmlns="http://www.w3.org/2000/svg"
   xmlns:svg="http://www.w3.org/2000/svg">
  <defs
     id="defs1" />
  <sodipodi:namedview
     id="namedview1"
     pagecolor="#ffffff"
     bordercolor="#000000"
     borderopacity="0.25"
     inkscape:showpageshadow="2"
     inkscape:pageopacity="0.0"
     inkscape:pagecheckerboard="0"
     inkscape:deskcolor="#d1d1d1"
     inkscape:zoom="1.2539063"
     inkscape:cx="550.28037"
     inkscape:cy="647.57632"
     inkscape:window-width="3792"
     inkscape:window-height="2128"
     inkscape:window-x="48"
     inkscape:window-y="0"
     inkscape:window-maximized="1"
     inkscape:current-layer="svg1" />
  <path
     fill-rule="evenodd"
     clip-rule="evenodd"
     d="M 300.24824,0 C 134.21872,0 0,137.49943 0,307.60496 0,443.5794 85.998558,558.67891 205.30135,599.41624 c 14.91593,3.06249 20.37957,-6.61872 20.37957,-14.76243 0,-7.13122 -0.49167,-31.57487 -0.49167,-57.04352 C 141.66746,545.94772 124.27477,490.9417 124.27477,490.9417 110.85228,455.29185 90.964386,446.12938 90.964386,446.12938 c -27.336638,-18.84367 1.991248,-18.84367 1.991248,-18.84367 30.323506,2.03749 46.235056,31.57487 46.235056,31.57487 26.83883,46.84981 70.08701,33.61236 87.48585,25.46239 2.48291,-19.86241 10.44176,-33.61235 18.89227,-41.24982 -66.61462,-7.13122 -136.70163,-33.61236 -136.70163,-151.76812 0,-33.61236 11.92291,-61.11224 30.81518,-82.49965 -2.98073,-7.63747 -13.42249,-39.21859 2.98687,-81.48716 0,0 25.35154,-8.14997 82.51387,31.57487 a 288.6695,293.56127 0 0 1 75.06514,-10.18746 c 25.35153,0 51.19473,3.56873 75.05898,10.18746 57.16848,-39.72484 82.52002,-31.57487 82.52002,-31.57487 16.40936,42.26857 5.96145,73.84969 2.98073,81.48716 19.39008,21.38741 30.82132,48.88729 30.82132,82.49965 0,118.15576 -70.08701,144.1244 -137.19944,151.76812 10.93957,9.67496 20.37956,28.00613 20.37956,57.03726 0,41.24983 -0.49167,74.35594 -0.49167,84.53715 0,8.14996 5.46979,17.83117 20.37957,14.77493 C 514.0001,558.67266 599.99866,443.5794 599.99866,307.60496 600.49032,137.49943 465.77994,0 300.24824,0 Z"
     fill="#24292f"
     id="path1"
     style="stroke-width:6.19769" />
</svg>
