<?xml version="1.0" encoding="UTF-8" standalone="no"?>
<svg
   data-v-d55864c3=""
   width="514"
   height="514"
   viewBox="0 0 514 514"
   class="modrinth-icon"
   version="1.1"
   id="svg2"
   sodipodi:docname="modrinth-symbol.svg"
   inkscape:version="1.4 (e7c3feb100, 2024-10-09)"
   xmlns:inkscape="http://www.inkscape.org/namespaces/inkscape"
   xmlns:sodipodi="http://sodipodi.sourceforge.net/DTD/sodipodi-0.dtd"
   xmlns="http://www.w3.org/2000/svg"
   xmlns:svg="http://www.w3.org/2000/svg">
  <defs
     id="defs2" />
  <sodipodi:namedview
     id="namedview2"
     pagecolor="#ffffff"
     bordercolor="#000000"
     borderopacity="0.25"
     inkscape:showpageshadow="2"
     inkscape:pageopacity="0.0"
     inkscape:pagecheckerboard="0"
     inkscape:deskcolor="#d1d1d1"
     inkscape:zoom="0.66239672"
     inkscape:cx="-472.52649"
     inkscape:cy="244.56643"
     inkscape:window-width="3792"
     inkscape:window-height="2128"
     inkscape:window-x="48"
     inkscape:window-y="0"
     inkscape:window-maximized="1"
     inkscape:current-layer="svg2" />
  <path
     fill="var(--color-brand)"
     fill-rule="evenodd"
     d="m 504.16,323.56 c 11.39,-42.09 12.16,-87.65 0.04,-132.8 C 467.57,54.23 327.04,-26.8 190.33,9.78 84.81,38.02 12.39,128.07 1.69,230.47 h 43.3 C 55.29,147.33 114.74,74.73 200.75,51.71 307.05,23.26 416.13,80.67 454.17,181.38 l -42.14,11.27 C 392.64,145.8 353.57,111.45 307.3,96.82 l -7.74,43.84 c 36.53,13.47 66.16,43.84 77,84.25 15.8,58.89 -13.62,119.23 -67,144.26 l 11.53,42.99 C 391.25,383.21 433.4,310.3 423.43,235.14 l 41.98,-11.23 a 210.2,210.2 0 0 1 -3.86,84.16 z"
     clip-rule="evenodd"
     id="path1"
     style="fill:#00af5c;fill-opacity:1" />
  <path
     fill="var(--color-brand)"
     d="M 322.99,504.22 C 186.27,540.8 45.75,459.77 9.11,323.24 A 257.6,257.6 0 0 1 1,275.46 h 43.27 c 1.09,11.91 3.2,23.89 6.41,35.83 3.36,12.51 7.77,24.46 13.11,35.78 l 38.59,-23.15 c -3.25,-7.5 -5.99,-15.32 -8.17,-23.45 -24.04,-89.6 29.2,-181.7 118.92,-205.71 17,-4.55 34.1,-6.32 50.8,-5.61 L 256.19,133 c -10.46,0.05 -21.08,1.42 -31.66,4.25 -66.22,17.73 -105.52,85.7 -87.78,151.84 1.1,4.07 2.38,8.04 3.84,11.9 l 49.35,-29.61 -14.87,-39.43 46.6,-47.87 58.9,-12.69 17.05,20.99 -27.15,27.5 -23.68,7.45 -16.92,17.39 8.29,23.07 c 0,0 16.79,17.84 16.82,17.85 l 23.72,-6.31 16.88,-18.54 36.86,-11.67 10.98,24.7 -38.03,46.63 -63.73,20.18 -28.58,-31.82 -49.82,29.89 c 25.54,29.08 63.94,45.23 103.75,41.86 l 11.53,42.99 C 219.13,431.41 161.1,406.82 125.05,361.64 l -38.41,23.04 c 50.61,66.49 138.2,99.43 223.97,76.48 61.74,-16.52 109.79,-58.6 135.81,-111.78 l 42.64,15.5 c -30.89,66.28 -89.84,118.94 -166.07,139.34"
     id="path2"
     style="fill:#00af5c;fill-opacity:1" />
</svg>
