<?xml version="1.0" encoding="UTF-8" standalone="no"?>
<!-- Created using Krita: https://krita.org -->

<svg
   width="429.47656pt"
   height="429.47699pt"
   viewBox="0 0 429.47656 429.47699"
   version="1.1"
   id="svg1"
   sodipodi:docname="gamergroup.svg"
   inkscape:version="1.3.2 (091e20ef0f, 2023-11-25)"
   xmlns:inkscape="http://www.inkscape.org/namespaces/inkscape"
   xmlns:sodipodi="http://sodipodi.sourceforge.net/DTD/sodipodi-0.dtd"
   xmlns="http://www.w3.org/2000/svg"
   xmlns:svg="http://www.w3.org/2000/svg">
  <sodipodi:namedview
     id="namedview1"
     pagecolor="#ffffff"
     bordercolor="#000000"
     borderopacity="0.25"
     inkscape:showpageshadow="2"
     inkscape:pageopacity="0.0"
     inkscape:pagecheckerboard="0"
     inkscape:deskcolor="#d1d1d1"
     inkscape:document-units="pt"
     inkscape:zoom="0.86205357"
     inkscape:cx="630.47126"
     inkscape:cy="209.38374"
     inkscape:window-width="3792"
     inkscape:window-height="2128"
     inkscape:window-x="48"
     inkscape:window-y="0"
     inkscape:window-maximized="1"
     inkscape:current-layer="svg1" />
  <defs
     id="defs1" />
  <g
     id="g1"
     transform="translate(0,55.497985)">
    <path
       id="shape0"
       fill="#ffffff"
       fill-rule="evenodd"
       stroke="none"
       stroke-width="10"
       stroke-linecap="square"
       stroke-linejoin="bevel"
       d="M 157.17499,169.9509 162.40999,82 C 40.081092,102.0682 -13.143108,153.2856 2.7368919,235.652 c 9.5161001,49.358 48.8173001,77.006 91.5407001,81.811 64.219398,7.223 137.159398,-26.284 136.189398,-28.412 -1.077,-2.362 -10.675,-38.834 -28.793,-109.415 l -69.89,19.108 10.209,38.217 c -27.747,20.417 -47.553298,21.203 -59.419698,2.356 -11.8664,-18.847 -3.7519,-41.096 24.343698,-66.7485 14.833,-13.2624 31.585,-14.135 50.258,-2.6176 z"
       sodipodi:nodetypes="cczczccczcc"
       style="fill:#ffffff" />
    <path
       id="shape1"
       fill="#ffffff"
       fill-rule="evenodd"
       stroke="none"
       stroke-width="10"
       stroke-linecap="square"
       stroke-linejoin="bevel"
       d="M 356.17499,87.9509 361.40999,3.4764829e-7 C 239.08109,20.0682 185.85689,71.2856 201.73689,153.652 c 9.5161,49.358 48.8173,77.006 91.5407,81.811 64.2194,7.223 137.1594,-26.284 136.1894,-28.412 -1.077,-2.362 -10.675,-38.834 -28.793,-109.415 l -69.89,19.108 10.209,38.217 c -27.747,20.417 -47.5533,21.203 -59.4197,2.356 -11.8664,-18.847 -3.7519,-41.096 24.3437,-66.7485 14.833,-13.2624 31.585,-14.135 50.258,-2.6176 z"
       sodipodi:nodetypes="cczczccczcc"
       style="fill:#ffffff" />
  </g>
</svg>
